<svg viewBox="0 0 100 100" xmlns="http://www.w3.org/2000/svg" role="img" aria-label="Badgeware">
  <rect width="100" height="100" rx="20" fill="#e08920"/>
  <svg x="14" y="24.4" width="72" height="51.2" viewBox="0.35 0.34 25.98 20.81" preserveAspectRatio="xMidYMid meet">
    <path fill="#0a141e" d="M.35 4.7v16.03c0 .08.03.15.06.21 0 .02.02.03.03.04.04.06.1.11.17.14.05.02.11.03.16.03h18.91a6.59 6.59 0 0 0 6.62-5.78 6.36 6.36 0 0 0-2.26-5.51c.63-1.12.91-2.38.79-3.68A6.58 6.58 0 0 0 18.21.34H.78a.42.42 0 0 0-.42.42v3.93Zm4.78 11.69v-3.24h14.82c.53 0 1.03.27 1.34.71.31.44.37.99.17 1.51a1.67 1.67 0 0 1-1.58 1.02H5.13Zm14.94-9.36c-.13.77-.87 1.34-1.72 1.34H5.13V5.13h13.34c.48 0 .93.21 1.24.58.31.37.44.84.36 1.32Z"/>
  </svg>
</svg>
